<?xml version="1.0" encoding="UTF-8" standalone="no"?>
<!-- Created with Inkscape (http://www.inkscape.org/) -->

<svg
   xmlns:dc="http://purl.org/dc/elements/1.1/"
   xmlns:cc="http://creativecommons.org/ns#"
   xmlns:rdf="http://www.w3.org/1999/02/22-rdf-syntax-ns#"
   xmlns:svg="http://www.w3.org/2000/svg"
   xmlns="http://www.w3.org/2000/svg"
   xmlns:sodipodi="http://sodipodi.sourceforge.net/DTD/sodipodi-0.dtd"
   xmlns:inkscape="http://www.inkscape.org/namespaces/inkscape"
   id="svg3388"
   version="1.1"
   inkscape:version="0.91 r13725"
   width="2304"
   height="648"
   viewBox="0 0 2304 648"
   sodipodi:docname="brand-new.svg">
  <metadata
     id="metadata3394">
    <rdf:RDF>
      <cc:Work
         rdf:about="">
        <dc:format>image/svg+xml</dc:format>
        <dc:type
           rdf:resource="http://purl.org/dc/dcmitype/StillImage" />
        <dc:title />
      </cc:Work>
    </rdf:RDF>
  </metadata>
  <defs
     id="defs3392" />
  <sodipodi:namedview
     pagecolor="#ffffff"
     bordercolor="#666666"
     borderopacity="1"
     objecttolerance="10"
     gridtolerance="10"
     guidetolerance="10"
     inkscape:pageopacity="0"
     inkscape:pageshadow="2"
     inkscape:window-width="1366"
     inkscape:window-height="706"
     id="namedview3390"
     showgrid="false"
     inkscape:zoom="0.21114994"
     inkscape:cx="848.81266"
     inkscape:cy="67.698077"
     inkscape:window-x="-8"
     inkscape:window-y="-8"
     inkscape:window-maximized="1"
     inkscape:current-layer="layer1" />
  <g
     inkscape:groupmode="layer"
     id="layer1"
     inkscape:label="Layer 1"
     style="display:inline">
    <g
       style="font-style:normal;font-weight:normal;font-size:102.5px;line-height:125%;font-family:sans-serif;letter-spacing:0px;word-spacing:0px;fill:#ffffff;fill-opacity:1;stroke:#000000;stroke-width:10;stroke-linecap:butt;stroke-linejoin:miter;stroke-miterlimit:4;stroke-dasharray:none;stroke-opacity:1"
       id="text3334">
      <path
         sodipodi:type="inkscape:offset"
         inkscape:radius="0"
         inkscape:original="M 54.542969 147.96094 L 54.542969 495.0625 L 107.19336 495.0625 L 107.19336 348.32422 L 251.49219 348.32422 L 251.49219 301.03711 L 107.19336 301.03711 L 107.19336 195.25 L 276.35547 195.25 L 276.35547 147.96094 L 54.542969 147.96094 z M 1553.5859 147.96094 L 1553.5859 337.59961 L 1598.9238 337.59961 C 1604.2863 320.53711 1619.8871 306.39844 1648.1621 306.39844 C 1688.1371 306.39844 1698.8613 337.59961 1698.8613 379.03711 C 1698.8613 402.43711 1696.9121 425.34961 1682.2871 439.97461 C 1673.5121 448.74961 1660.8359 453.625 1646.2109 453.625 C 1615.0109 453.625 1599.4117 436.07383 1595.5117 405.36133 L 1545.7871 405.36133 C 1547.7371 430.22383 1553.5863 453.13711 1572.1113 471.66211 C 1587.2238 486.77461 1613.0609 498.47461 1646.2109 498.47461 C 1679.8484 498.47461 1703.7359 486.77383 1719.3359 471.17383 C 1744.6859 445.82383 1748.5859 416.08711 1748.5859 379.03711 C 1748.5859 346.37461 1744.6863 312.73711 1718.3613 286.41211 C 1704.2238 272.27461 1683.2609 263.98633 1655.9609 263.98633 C 1630.6109 263.98633 1610.1355 271.78711 1598.4355 283.97461 L 1598.4355 192.32422 L 1740.7871 192.32422 L 1740.7871 147.96094 L 1553.5859 147.96094 z M 1752.0176 147.96094 L 1752.0176 495.0625 L 1804.668 495.0625 L 1804.668 343.44922 L 1945.5547 343.44922 L 1945.5547 495.0625 L 1998.2051 495.0625 L 1998.2051 147.96094 L 1945.5547 147.96094 L 1945.5547 296.16211 L 1804.668 296.16211 L 1804.668 147.96094 L 1752.0176 147.96094 z M 2012.1992 147.96094 L 2012.1992 495.0625 L 2134.0742 495.0625 C 2170.1492 495.0625 2201.8359 484.33594 2223.7734 462.39844 C 2261.3109 424.86094 2258.873 369.28672 2258.873 319.07422 C 2258.873 268.86172 2261.3109 218.1625 2223.7734 180.625 C 2201.8359 158.6875 2170.1492 147.96094 2134.0742 147.96094 L 2012.1992 147.96094 z M 1242.6895 177.21094 L 1242.6895 252.28711 L 1214.4141 252.28711 L 1214.4141 290.3125 L 1242.6895 290.3125 L 1242.6895 426.32422 C 1242.6895 461.91172 1264.1387 495.0625 1310.4512 495.0625 L 1340.1895 495.0625 L 1340.1895 452.64844 L 1319.7148 452.64844 C 1301.1898 452.64844 1292.4141 441.92422 1292.4141 423.88672 L 1292.4141 290.3125 L 1340.1895 290.3125 L 1340.1895 252.28711 L 1292.4141 252.28711 L 1292.4141 177.21094 L 1242.6895 177.21094 z M 2064.8477 195.25 L 2128.7109 195.25 C 2153.5734 195.25 2173.0742 202.56094 2187.6992 218.64844 C 2205.7367 238.63594 2206.2227 271.29922 2206.2227 319.07422 C 2206.2227 366.84922 2205.7367 404.3875 2187.6992 424.375 C 2173.0742 440.4625 2153.5734 447.77344 2128.7109 447.77344 L 2064.8477 447.77344 L 2064.8477 195.25 z M 366.09375 244.97461 C 302.71875 244.97461 261.28125 291.28633 261.28125 371.23633 C 261.28125 465.32383 310.51914 497.98633 372.43164 497.98633 C 415.81914 497.98633 439.70664 484.82461 465.05664 459.47461 L 433.36914 429.73633 C 415.81914 447.28633 401.19375 455.08594 373.40625 455.08594 C 332.94375 455.08594 310.51953 428.27383 310.51953 385.86133 L 470.90625 385.86133 L 470.90625 363.92383 C 470.90625 293.72383 432.39375 244.97461 366.09375 244.97461 z M 593.41211 244.97461 C 565.62461 244.97461 540.27461 257.16094 527.59961 274.71094 L 527.59961 247.89844 L 478.84961 247.89844 L 478.84961 495.0625 L 528.57422 495.0625 L 528.57422 344.91211 C 528.57422 310.78711 551 289.33594 577.8125 289.33594 C 594.875 289.33594 603.65078 294.69961 614.86328 305.91211 L 652.40039 268.375 C 635.33789 251.3125 617.29961 244.97461 593.41211 244.97461 z M 770.88672 244.97461 C 746.02422 244.97461 721.64922 254.72422 705.07422 272.76172 L 705.07422 247.89844 L 656.32422 247.89844 L 656.32422 495.0625 L 706.04883 495.0625 L 706.04883 344.42383 C 706.04883 306.39883 729.44883 289.33594 757.23633 289.33594 C 785.02383 289.33594 806.96094 305.91133 806.96094 344.42383 L 806.96094 495.0625 L 856.68555 495.0625 L 856.68555 341.98633 C 856.68555 306.39883 881.06055 289.33594 907.87305 289.33594 C 935.66055 289.33594 957.59766 305.91133 957.59766 344.42383 L 957.59766 495.0625 L 1007.3242 495.0625 L 1007.3242 337.11133 C 1007.3242 309.32383 1000.0105 285.92344 980.99805 267.39844 C 966.37305 253.26094 943.94766 244.97461 918.59766 244.97461 C 885.93516 244.97461 861.07344 256.67383 841.08594 281.04883 C 825.48594 257.16133 801.59922 244.97461 770.88672 244.97461 z M 1120.5801 244.97461 C 1086.9426 244.97461 1063.0562 257.64961 1046.9688 274.22461 C 1023.5688 298.59961 1017.7188 329.79883 1017.7188 371.23633 C 1017.7188 413.16133 1023.5688 444.36133 1046.9688 468.73633 C 1063.0563 485.31133 1086.9426 497.98633 1120.5801 497.98633 C 1154.2176 497.98633 1178.5922 485.31133 1194.6797 468.73633 C 1218.0797 444.36133 1223.9297 413.16133 1223.9297 371.23633 C 1223.9297 329.79883 1218.0797 298.59961 1194.6797 274.22461 C 1178.5922 257.64961 1154.2176 244.97461 1120.5801 244.97461 z M 1438.3027 244.97461 C 1404.6652 244.97461 1380.7789 257.64961 1364.6914 274.22461 C 1341.2914 298.59961 1335.4414 329.79883 1335.4414 371.23633 C 1335.4414 413.16133 1341.2914 444.36133 1364.6914 468.73633 C 1380.7789 485.31133 1404.6652 497.98633 1438.3027 497.98633 C 1471.9402 497.98633 1496.3148 485.31133 1512.4023 468.73633 C 1535.8023 444.36133 1541.6523 413.16133 1541.6523 371.23633 C 1541.6523 329.79883 1535.8023 298.59961 1512.4023 274.22461 C 1496.3148 257.64961 1471.9402 244.97461 1438.3027 244.97461 z M 366.09375 286.41211 C 389.49375 286.41211 407.04375 299.08633 414.84375 317.61133 C 419.71875 328.82383 421.18242 336.1375 421.66992 351.25 L 310.51953 351.25 C 311.00703 336.1375 311.98242 328.82383 316.85742 317.61133 C 324.65742 299.08633 342.69375 286.41211 366.09375 286.41211 z M 1120.5801 289.33594 C 1135.2051 289.33594 1147.8801 294.21211 1157.1426 303.47461 C 1172.2551 318.58711 1174.2051 344.42383 1174.2051 371.23633 C 1174.2051 398.04883 1172.2551 423.8875 1157.1426 439 C 1147.8801 448.2625 1135.2051 453.625 1120.5801 453.625 C 1105.9551 453.625 1093.7684 448.2625 1084.5059 439 C 1069.3934 423.8875 1067.4434 398.04883 1067.4434 371.23633 C 1067.4434 344.42383 1069.3934 318.58711 1084.5059 303.47461 C 1093.7684 294.21211 1105.9551 289.33594 1120.5801 289.33594 z M 1438.3027 289.33594 C 1452.9277 289.33594 1465.6027 294.21211 1474.8652 303.47461 C 1489.9777 318.58711 1491.9277 344.42383 1491.9277 371.23633 C 1491.9277 398.04883 1489.9777 423.8875 1474.8652 439 C 1465.6027 448.2625 1452.9277 453.625 1438.3027 453.625 C 1423.6777 453.625 1411.491 448.2625 1402.2285 439 C 1387.116 423.8875 1385.166 398.04883 1385.166 371.23633 C 1385.166 344.42383 1387.116 318.58711 1402.2285 303.47461 C 1411.491 294.21211 1423.6777 289.33594 1438.3027 289.33594 z "
         style="letter-spacing:-76.88005066px;fill:#ffffff;fill-opacity:1;stroke:#282828;stroke-width:10;stroke-miterlimit:4;stroke-dasharray:none;stroke-opacity:0.52996844"
         id="path3384"
         d="m 54.542969,147.96094 0,347.10156 52.650391,0 0,-146.73828 144.29883,0 0,-47.28711 -144.29883,0 0,-105.78711 169.16211,0 0,-47.28906 -221.812501,0 z m 1499.042931,0 0,189.63867 45.3379,0 c 5.3625,-17.0625 20.9633,-31.20117 49.2383,-31.20117 39.975,0 50.6992,31.20117 50.6992,72.63867 0,23.4 -1.9492,46.3125 -16.5742,60.9375 -8.775,8.775 -21.4512,13.65039 -36.0762,13.65039 -31.2,0 -46.7992,-17.55117 -50.6992,-48.26367 l -49.7246,0 c 1.95,24.8625 7.7992,47.77578 26.3242,66.30078 15.1125,15.1125 40.9496,26.8125 74.0996,26.8125 33.6375,0 57.525,-11.70078 73.125,-27.30078 25.35,-25.35 29.25,-55.08672 29.25,-92.13672 0,-32.6625 -3.8996,-66.3 -30.2246,-92.625 -14.1375,-14.1375 -35.1004,-22.42578 -62.4004,-22.42578 -25.35,0 -45.8254,7.80078 -57.5254,19.98828 l 0,-91.65039 142.3516,0 0,-44.36328 -187.2012,0 z m 198.4317,0 0,347.10156 52.6504,0 0,-151.61328 140.8867,0 0,151.61328 52.6504,0 0,-347.10156 -52.6504,0 0,148.20117 -140.8867,0 0,-148.20117 -52.6504,0 z m 260.1816,0 0,347.10156 121.875,0 c 36.075,0 67.7617,-10.72656 89.6992,-32.66406 37.5375,-37.5375 35.0996,-93.11172 35.0996,-143.32422 0,-50.2125 2.4379,-100.91172 -35.0996,-138.44922 -21.9375,-21.9375 -53.6242,-32.66406 -89.6992,-32.66406 l -121.875,0 z m -769.5097,29.25 0,75.07617 -28.2754,0 0,38.02539 28.2754,0 0,136.01172 c 0,35.5875 21.4492,68.73828 67.7617,68.73828 l 29.7383,0 0,-42.41406 -20.4747,0 c -18.525,0 -27.3007,-10.72422 -27.3007,-28.76172 l 0,-133.57422 47.7754,0 0,-38.02539 -47.7754,0 0,-75.07617 -49.7246,0 z m 822.1582,18.03906 63.8632,0 c 24.8625,0 44.3633,7.31094 58.9883,23.39844 18.0375,19.9875 18.5235,52.65078 18.5235,100.42578 0,47.775 -0.486,85.31328 -18.5235,105.30078 -14.625,16.0875 -34.1258,23.39844 -58.9883,23.39844 l -63.8632,0 0,-252.52344 z M 366.09375,244.97461 c -63.375,0 -104.8125,46.31172 -104.8125,126.26172 0,94.0875 49.23789,126.75 111.15039,126.75 43.3875,0 67.275,-13.16172 92.625,-38.51172 l -31.6875,-29.73828 c -17.55,17.55 -32.17539,25.34961 -59.96289,25.34961 -40.4625,0 -62.88672,-26.81211 -62.88672,-69.22461 l 160.38672,0 0,-21.9375 c 0,-70.2 -38.5125,-118.94922 -104.8125,-118.94922 z m 227.31836,0 c -27.7875,0 -53.1375,12.18633 -65.8125,29.73633 l 0,-26.8125 -48.75,0 0,247.16406 49.72461,0 0,-150.15039 c 0,-34.125 22.42578,-55.57617 49.23828,-55.57617 17.0625,0 25.83828,5.36367 37.05078,16.57617 L 652.40039,268.375 c -17.0625,-17.0625 -35.10078,-23.40039 -58.98828,-23.40039 z m 177.47461,0 c -24.8625,0 -49.2375,9.74961 -65.8125,27.78711 l 0,-24.86328 -48.75,0 0,247.16406 49.72461,0 0,-150.63867 c 0,-38.025 23.4,-55.08789 51.1875,-55.08789 27.7875,0 49.72461,16.57539 49.72461,55.08789 l 0,150.63867 49.72461,0 0,-153.07617 c 0,-35.5875 24.375,-52.65039 51.1875,-52.65039 27.7875,0 49.72461,16.57539 49.72461,55.08789 l 0,150.63867 49.72654,0 0,-157.95117 c 0,-27.7875 -7.3137,-51.18789 -26.32615,-69.71289 -14.625,-14.1375 -37.05039,-22.42383 -62.40039,-22.42383 -32.6625,0 -57.52422,11.69922 -77.51172,36.07422 -15.6,-23.8875 -39.48672,-36.07422 -70.19922,-36.07422 z m 349.69338,0 c -33.6375,0 -57.5239,12.675 -73.6113,29.25 -23.4,24.375 -29.25,55.57422 -29.25,97.01172 0,41.925 5.85,73.125 29.25,97.5 16.0875,16.575 39.9738,29.25 73.6113,29.25 33.6375,0 58.0121,-12.675 74.0996,-29.25 23.4,-24.375 29.25,-55.575 29.25,-97.5 0,-41.4375 -5.85,-72.63672 -29.25,-97.01172 -16.0875,-16.575 -40.4621,-29.25 -74.0996,-29.25 z m 317.7226,0 c -33.6375,0 -57.5238,12.675 -73.6113,29.25 -23.4,24.375 -29.25,55.57422 -29.25,97.01172 0,41.925 5.85,73.125 29.25,97.5 16.0875,16.575 39.9738,29.25 73.6113,29.25 33.6375,0 58.0121,-12.675 74.0996,-29.25 23.4,-24.375 29.25,-55.575 29.25,-97.5 0,-41.4375 -5.85,-72.63672 -29.25,-97.01172 -16.0875,-16.575 -40.4621,-29.25 -74.0996,-29.25 z m -1072.20895,41.4375 c 23.4,0 40.95,12.67422 48.75,31.19922 4.875,11.2125 6.33867,18.52617 6.82617,33.63867 l -111.15039,0 c 0.4875,-15.1125 1.46289,-22.42617 6.33789,-33.63867 7.8,-18.525 25.83633,-31.19922 49.23633,-31.19922 z m 754.48635,2.92383 c 14.625,0 27.3,4.87617 36.5625,14.13867 15.1125,15.1125 17.0625,40.94922 17.0625,67.76172 0,26.8125 -1.95,52.65117 -17.0625,67.76367 -9.2625,9.2625 -21.9375,14.625 -36.5625,14.625 -14.625,0 -26.8117,-5.3625 -36.0742,-14.625 -15.1125,-15.1125 -17.0625,-40.95117 -17.0625,-67.76367 0,-26.8125 1.95,-52.64922 17.0625,-67.76172 9.2625,-9.2625 21.4492,-14.13867 36.0742,-14.13867 z m 317.7226,0 c 14.625,0 27.3,4.87617 36.5625,14.13867 15.1125,15.1125 17.0625,40.94922 17.0625,67.76172 0,26.8125 -1.95,52.65117 -17.0625,67.76367 -9.2625,9.2625 -21.9375,14.625 -36.5625,14.625 -14.625,0 -26.8117,-5.3625 -36.0742,-14.625 -15.1125,-15.1125 -17.0625,-40.95117 -17.0625,-67.76367 0,-26.8125 1.95,-52.64922 17.0625,-67.76172 9.2625,-9.2625 21.4492,-14.13867 36.0742,-14.13867 z" />
    </g>
  </g>
  <g
     style="display:none"
     inkscape:label="Layer 1 copia"
     id="g3343"
     inkscape:groupmode="layer">
    <text
       sodipodi:linespacing="125%"
       id="text3345"
       y="495.06177"
       x="9.204998"
       style="font-style:normal;font-weight:normal;font-size:102.5px;line-height:125%;font-family:sans-serif;letter-spacing:0px;word-spacing:0px;fill:#ffffff;fill-opacity:1;stroke:#000000;stroke-width:10;stroke-linecap:butt;stroke-linejoin:miter;stroke-miterlimit:4;stroke-dasharray:none;stroke-opacity:1"
       xml:space="preserve"><tspan
         style="font-style:normal;font-variant:normal;font-weight:500;font-stretch:normal;font-size:487.5px;font-family:DINPro;-inkscape-font-specification:'DINPro Medium';letter-spacing:-54.42000198px;fill:#ffffff;fill-opacity:1;stroke:#282828;stroke-width:10;stroke-miterlimit:4;stroke-dasharray:none;stroke-opacity:0.52996844"
         y="495.06177"
         x="9.204998"
         id="tspan3347"
         sodipodi:role="line"><tspan
   id="tspan3349"
   style="letter-spacing:-60.37999725px">F</tspan><tspan
   id="tspan3351"
   style="letter-spacing:-57.90000153px">e</tspan><tspan
   id="tspan3353"
   style="letter-spacing:-36.75999832px;stroke:#282828;stroke-width:10;stroke-miterlimit:4;stroke-dasharray:none;stroke-opacity:0.52996844">r</tspan><tspan
   id="tspan3355"
   style="letter-spacing:-54.41999817px;stroke:#282828;stroke-width:10;stroke-miterlimit:4;stroke-dasharray:none;stroke-opacity:0.52996844">mo</tspan>to<tspan
   id="tspan3357"
   style="letter-spacing:-68.33000946px;fill:#ffffff;fill-opacity:1;stroke:#282828;stroke-width:10;stroke-miterlimit:4;stroke-dasharray:none;stroke-opacity:0.52996844">5</tspan><tspan
   style="letter-spacing:-76.88005066px;fill:#ffffff;fill-opacity:1;stroke:#282828;stroke-width:10;stroke-miterlimit:4;stroke-dasharray:none;stroke-opacity:0.52996844"
   id="tspan3359">HD</tspan></tspan></text>
  </g>
</svg>
